<svg version="1.1" viewBox="0.0 0.0 1171.6535433070867 642.5196850393701" fill="none" stroke="none" stroke-linecap="square" stroke-miterlimit="10" xmlns:xlink="http://www.w3.org/1999/xlink" xmlns="http://www.w3.org/2000/svg"><clipPath id="p.0"><path d="m0 0l1171.6536 0l0 642.5197l-1171.6536 0l0 -642.5197z" clip-rule="nonzero"/></clipPath><g clip-path="url(#p.0)"><path fill="#000000" fill-opacity="0.0" d="m0 0l1171.6536 0l0 642.5197l-1171.6536 0z" fill-rule="evenodd"/><path fill="#ffffff" d="m-1.8235291 0l1159.7795 0l0 636.0l-1159.7795 0z" fill-rule="evenodd"/><path fill="#000000" fill-opacity="0.0" d="m124.0 3.448819l1134.2047 0l0 635.6221l-1134.2047 0z" fill-rule="evenodd"/><path fill="#000000" d="m146.48438 486.04883l0 -42.15625l37.34375 -7.21875l0 -251.73438l-37.34375 -7.21875l0 -42.390625l37.34375 0l118.515625 0q61.90625 0 96.59375 24.09375q34.6875 24.078125 34.6875 72.015625q0 24.328125 -12.890625 43.484375q-12.890625 19.140625 -37.453125 28.78125q20.953125 4.578125 35.046875 16.140625q14.09375 11.5625 21.078125 28.0625q6.984375 16.5 6.984375 36.0q0 50.34375 -33.25 76.25q-33.234375 25.890625 -94.171875 25.890625l-172.48438 0zm107.6875 -53.953125l64.796875 0q27.9375 0 42.625 -12.15625q14.703125 -12.171875 14.703125 -36.03125q0 -17.34375 -5.546875 -29.140625q-5.53125 -11.796875 -16.984375 -17.8125q-11.4375 -6.03125 -29.5 -6.03125l-70.09375 0l0 101.171875zm0 -149.82812l50.578125 0q28.1875 0 43.359375 -11.5625q15.171875 -11.5625 15.171875 -33.734375q0 -24.328125 -15.296875 -35.890625q-15.296875 -11.5625 -45.640625 -11.5625l-48.171875 0l0 92.75zm216.05908 203.78125l0 -42.15625l37.34375 -7.21875l0 -251.73438l-37.34375 -7.21875l0 -42.390625l37.34375 0l104.0625 0l95.625 244.48438l1.453125 0l92.5 -244.48438l141.64062 0l0 42.390625l-37.578125 7.21875l0 251.73438l37.578125 7.21875l0 42.15625l-145.26562 0l0 -42.15625l39.265625 -7.21875l0 -67.21875l1.203125 -158.25l-1.4375 -0.25l-104.78125 270.28125l-53.234375 0l-107.203125 -268.10938l-1.4375 0.25l4.09375 148.85938l0 74.4375l41.421875 7.21875l0 42.15625l-145.25 0zm515.25775 0l0 -61.671875l70.09381 0l0 61.671875l-70.09381 0z" fill-rule="nonzero"/><path fill="#ffffff" d="m247.21794 131.00787l57.795273 0l0 364.50394l-57.795273 0z" fill-rule="evenodd"/><path fill="#ffffff" d="m496.21783 380.19684l86.299255 0l0 57.795288l-86.299255 0z" fill-rule="evenodd"/><path fill="#ffffff" d="m826.21783 380.19684l86.299255 0l0 57.795288l-86.299255 0z" fill-rule="evenodd"/></g></svg>