<svg version="1.1" viewBox="0.0 0.0 298.9212598425197 151.0262467191601" fill="none" stroke="none" stroke-linecap="square" stroke-miterlimit="10" xmlns:xlink="http://www.w3.org/1999/xlink" xmlns="http://www.w3.org/2000/svg"><clipPath id="p.0"><path d="m0 0l298.92126 0l0 151.02625l-298.92126 0l0 -151.02625z" clip-rule="nonzero"/></clipPath><g clip-path="url(#p.0)"><path fill="#000000" fill-opacity="0.0" d="m0 0l298.92126 0l0 151.02625l-298.92126 0z" fill-rule="evenodd"/><path fill="#000000" d="m0 0l299.68503 0l0 153.07086l-299.68503 0z" fill-rule="evenodd"/><path fill="#000000" fill-opacity="0.0" d="m33.225723 -12.094488l299.68506 0l0 165.16534l-299.68506 0z" fill-rule="evenodd"/><path fill="#ffffff" d="m49.913223 119.785515l0 -95.8125l19.828125 0l0 36.484375q3.71875 -3.640625 8.421875 -5.84375q4.703125 -2.21875 11.03125 -2.21875q5.1875 0 9.59375 2.25q4.421875 2.234375 7.625 6.5625q3.203125 4.3125 5.03125 10.578125q1.828125 6.265625 1.828125 14.265625q0 7.5 -2.09375 13.84375q-2.078125 6.328125 -5.828125 11.0q-3.734375 4.671875 -8.953125 7.296875q-5.21875 2.625 -11.546875 2.625q-2.9375 0 -5.28125 -0.578125q-2.328125 -0.578125 -4.28125 -1.625q-1.953125 -1.0625 -3.59375 -2.53125q-1.625 -1.484375 -3.171875 -3.203125l-0.703125 3.328125q-0.4375 2.046875 -1.625 2.8125q-1.1875 0.765625 -3.109375 0.765625l-13.171875 0zm32.375 -52.484375q-2.171875 0 -3.9375 0.421875q-1.75 0.421875 -3.265625 1.1875q-1.5 0.765625 -2.78125 1.953125q-1.28125 1.171875 -2.5625 2.71875l0 28.15625q2.25 2.5 4.875 3.5q2.625 0.984375 5.5 0.984375q2.75 0 5.046875 -1.09375q2.3125 -1.09375 4.0 -3.484375q1.703125 -2.40625 2.65625 -6.234375q0.96875 -3.84375 0.96875 -9.359375q0 -5.234375 -0.765625 -8.8125q-0.765625 -3.59375 -2.15625 -5.796875q-1.375 -2.21875 -3.296875 -3.171875q-1.90625 -0.96875 -4.28125 -0.96875zm41.86487 52.484375l0 -66.375l12.28125 0q1.859375 0 3.09375 0.84375q1.25 0.828125 1.765625 2.484375l1.09375 3.59375q1.65625 -1.734375 3.453125 -3.171875q1.796875 -1.4375 3.875 -2.484375q2.078125 -1.0625 4.46875 -1.671875q2.40625 -0.609375 5.296875 -0.609375q6.015625 0 9.9375 3.109375q3.9375 3.09375 5.984375 8.28125q1.671875 -3.078125 4.0625 -5.25q2.40625 -2.171875 5.1875 -3.515625q2.78125 -1.34375 5.890625 -1.984375q3.109375 -0.640625 6.171875 -0.640625q5.703125 0 10.109375 1.703125q4.421875 1.6875 7.390625 4.921875q2.984375 3.234375 4.515625 7.9375q1.546875 4.703125 1.546875 10.65625l0 42.171875l-19.84375 0l0 -42.171875q0 -10.3125 -8.828125 -10.3125q-4.03125 0 -6.6875 2.65625q-2.65625 2.65625 -2.65625 7.65625l0 42.171875l-19.84375 0l0 -42.171875q0 -5.703125 -2.25 -8.0q-2.234375 -2.3125 -6.578125 -2.3125q-2.6875 0 -5.09375 1.21875q-2.40625 1.21875 -4.515625 3.265625l0 48.0l-19.828125 0zm106.36406 -10.046875q0 -2.3125 0.859375 -4.28125q0.859375 -1.984375 2.359375 -3.453125q1.515625 -1.484375 3.5625 -2.34375q2.046875 -0.859375 4.484375 -0.859375q2.359375 0 4.40625 0.859375q2.046875 0.859375 3.578125 2.34375q1.546875 1.46875 2.40625 3.453125q0.875 1.96875 0.875 4.28125q0 2.296875 -0.875 4.3125q-0.859375 2.015625 -2.40625 3.5q-1.53125 1.46875 -3.578125 2.296875q-2.046875 0.828125 -4.40625 0.828125q-2.4375 0 -4.484375 -0.828125q-2.046875 -0.828125 -3.5625 -2.296875q-1.5 -1.484375 -2.359375 -3.5q-0.859375 -2.015625 -0.859375 -4.3125z" fill-rule="nonzero"/></g></svg>