<svg version="1.1" viewBox="0.0 0.0 348.0 732.0" fill="none" stroke="none" stroke-linecap="square" stroke-miterlimit="10" xmlns:xlink="http://www.w3.org/1999/xlink" xmlns="http://www.w3.org/2000/svg"><clipPath id="p.0"><path d="m0 0l348.0 0l0 732.0l-348.0 0l0 -732.0z" clip-rule="nonzero"/></clipPath><g clip-path="url(#p.0)"><path fill="#000000" fill-opacity="0.0" d="m0 0l348.0 0l0 732.0l-348.0 0z" fill-rule="evenodd"/><path fill="#000000" d="m0 0l348.0 0l0 732.0l-348.0 0z" fill-rule="evenodd"/><path fill="#ffffff" d="m22.992126 24.0l302.01575 0l0 684.0l-302.01575 0z" fill-rule="evenodd"/><path fill="#000000" fill-opacity="0.0" d="m0 0l348.0 0l0 732.0l-348.0 0z" fill-rule="evenodd"/><path fill="#000000" d="m88.0625 231.60002l41.484375 0q9.375 0 16.875 -2.109375q7.5 -2.109375 12.734375 -6.328125q5.234375 -4.21875 8.046875 -10.46875q2.8125 -6.25 2.8125 -14.453125q0 -4.296875 -1.140625 -8.3125q-1.125 -4.03125 -3.46875 -7.46875q-2.265625 -3.203125 -5.59375 -5.625q-3.3125 -2.421875 -8.9375 -3.984375l0 -0.078125q2.890625 -1.09375 5.265625 -2.65625q2.390625 -1.5625 4.265625 -3.4375q3.4375 -3.4375 5.1875 -8.0q1.765625 -4.578125 1.84375 -9.734375q0 -7.96875 -2.9375 -13.828125q-2.921875 -5.859375 -8.3125 -9.6875q-5.390625 -3.828125 -13.015625 -5.703125q-7.609375 -1.875 -16.90625 -1.875l-38.203125 0l0 113.75zm22.03125 -50.15625l20.46875 0q4.609375 0.078125 7.96875 1.25q3.359375 1.171875 5.46875 3.359375q2.109375 2.109375 3.078125 5.15625q0.984375 3.046875 0.984375 6.875q0 3.671875 -1.296875 6.640625q-1.28125 2.96875 -3.78125 5.078125q-2.265625 1.875 -5.671875 2.96875q-3.390625 1.09375 -7.6875 1.09375l-19.53125 0l0 -32.421875zm0 -15.859375l0 -29.84375l16.25 0q5.3125 0.078125 9.25 1.171875q3.953125 1.09375 6.296875 3.515625q1.796875 1.71875 2.6875 4.296875q0.90625 2.578125 0.90625 6.015625q0 3.28125 -1.0625 5.859375q-1.046875 2.578125 -3.0 4.375q-2.34375 2.265625 -6.171875 3.40625q-3.828125 1.125 -8.828125 1.203125l-16.328125 0zm130.07812 42.265625l6.640625 23.75l23.125 0l-36.5625 -113.75l-19.921875 0l-37.265625 113.75l23.125 0l6.71875 -23.75l34.140625 0zm-28.75 -18.671875l11.953125 -41.875l11.640625 41.875l-23.59375 0z" fill-rule="nonzero"/><path fill="#000000" d="m171.8125 327.7406l0 -17.890625l-91.71875 0l0 17.890625l34.609375 0l0 95.859375l22.03125 0l0 -95.859375l35.078125 0zm39.375 -17.890625l-27.265625 0l0 113.75l20.15625 0l0 -33.671875l-0.9375 -51.09375l13.359375 47.265625l10.859375 0l14.921875 -49.375l-0.9375 53.203125l0 33.671875l20.15625 0l0 -113.75l-27.265625 0l-12.265625 42.734375l-10.78125 -42.734375z" fill-rule="nonzero"/><path fill="#000000" d="m167.59375 567.08435l0 -16.5625q0 -7.734375 -1.453125 -14.609375q-1.4375 -6.875 -4.171875 -12.65625q-2.5 -5.078125 -5.984375 -9.296875q-3.46875 -4.21875 -8.078125 -7.1875q-4.609375 -3.125 -10.359375 -4.796875q-5.734375 -1.6875 -12.296875 -1.6875q-6.484375 0 -12.03125 1.640625q-5.546875 1.640625 -10.0 4.6875q-4.53125 3.125 -8.015625 7.5q-3.46875 4.375 -5.890625 9.765625q-2.5 5.703125 -3.796875 12.421875q-1.28125 6.71875 -1.28125 14.21875l0 16.5625q0 7.03125 1.125 13.359375q1.140625 6.328125 3.328125 11.71875q2.421875 5.859375 6.015625 10.515625q3.59375 4.640625 8.125 7.921875q4.609375 3.125 10.234375 4.84375q5.625 1.71875 12.265625 1.71875q6.25 0 11.671875 -1.53125q5.4375 -1.515625 9.96875 -4.25q5.0 -3.125 8.90625 -7.8125q3.90625 -4.6875 6.5625 -10.3125q2.5 -5.625 3.828125 -12.21875q1.328125 -6.609375 1.328125 -13.953125zm-22.265625 -16.71875l0 16.71875q0 4.21875 -0.4375 8.125q-0.421875 3.90625 -1.28125 7.1875q-1.09375 4.21875 -2.9375 7.546875q-1.828125 3.3125 -4.484375 5.5q-2.109375 1.796875 -4.84375 2.734375q-2.734375 0.9375 -6.015625 0.9375q-3.4375 0 -6.140625 -1.015625q-2.6875 -1.015625 -4.796875 -2.890625q-2.265625 -2.109375 -3.953125 -5.5q-1.671875 -3.40625 -2.53125 -7.546875q-0.78125 -3.28125 -1.09375 -7.109375q-0.3125 -3.828125 -0.3125 -7.96875l0 -16.71875q0 -4.375 0.34375 -8.359375q0.359375 -3.984375 1.140625 -7.34375q1.015625 -4.375 2.84375 -7.65625q1.84375 -3.28125 4.5 -5.46875q1.953125 -1.484375 4.40625 -2.265625q2.46875 -0.78125 5.515625 -0.78125q3.203125 0 5.8125 0.859375q2.625 0.859375 4.734375 2.421875q2.65625 2.109375 4.609375 5.4375q1.953125 3.3125 3.125 7.53125q0.9375 3.359375 1.359375 7.3125q0.4375 3.9375 0.4375 8.3125zm65.46875 65.234375l22.34375 0l34.453125 -113.75l-24.21875 0l-19.375 74.21875l-2.109375 7.734375l-1.953125 -7.65625l-19.296875 -74.296875l-24.21875 0l34.375 113.75z" fill-rule="nonzero"/></g></svg>